<?xml version="1.0" standalone="no"?>
<svg xmlns:xlink="http://www.w3.org/1999/xlink" id="wave" style="transform:rotate(0deg); transition: 0.3s" viewBox="0 0 1440 490" version="1.1" xmlns="http://www.w3.org/2000/svg"><defs><linearGradient id="sw-gradient-0" x1="0" x2="0" y1="1" y2="0"><stop stop-color="rgba(255, 255, 255, 1)" offset="0%"/><stop stop-color="rgba(255, 255, 255, 1)" offset="100%"/></linearGradient></defs><path style="transform:translate(0, 0px); opacity:1" fill="url(#sw-gradient-0)" d="M0,343L48,285.8C96,229,192,114,288,89.8C384,65,480,131,576,187.8C672,245,768,294,864,261.3C960,229,1056,114,1152,106.2C1248,98,1344,196,1440,220.5C1536,245,1632,196,1728,155.2C1824,114,1920,82,2016,130.7C2112,180,2208,310,2304,359.3C2400,408,2496,376,2592,318.5C2688,261,2784,180,2880,196C2976,212,3072,327,3168,367.5C3264,408,3360,376,3456,351.2C3552,327,3648,310,3744,294C3840,278,3936,261,4032,212.3C4128,163,4224,82,4320,114.3C4416,147,4512,294,4608,318.5C4704,343,4800,245,4896,245C4992,245,5088,343,5184,318.5C5280,294,5376,147,5472,98C5568,49,5664,98,5760,114.3C5856,131,5952,114,6048,98C6144,82,6240,65,6336,114.3C6432,163,6528,278,6624,343C6720,408,6816,425,6864,432.8L6912,441L6912,490L6864,490C6816,490,6720,490,6624,490C6528,490,6432,490,6336,490C6240,490,6144,490,6048,490C5952,490,5856,490,5760,490C5664,490,5568,490,5472,490C5376,490,5280,490,5184,490C5088,490,4992,490,4896,490C4800,490,4704,490,4608,490C4512,490,4416,490,4320,490C4224,490,4128,490,4032,490C3936,490,3840,490,3744,490C3648,490,3552,490,3456,490C3360,490,3264,490,3168,490C3072,490,2976,490,2880,490C2784,490,2688,490,2592,490C2496,490,2400,490,2304,490C2208,490,2112,490,2016,490C1920,490,1824,490,1728,490C1632,490,1536,490,1440,490C1344,490,1248,490,1152,490C1056,490,960,490,864,490C768,490,672,490,576,490C480,490,384,490,288,490C192,490,96,490,48,490L0,490Z"/></svg>